<svg width="354" height="100" viewBox="0 0 354 100" fill="none" xmlns="http://www.w3.org/2000/svg">
<circle cx="96" cy="100" r="100" fill="#2C6269"/>
<path fill-rule="evenodd" clip-rule="evenodd" d="M254 200C309.228 200 354 155.228 354 100C354 44.7715 309.228 0 254 0C198.772 0 154 44.7715 154 100C154 155.228 198.772 200 254 200ZM254 133C272.225 133 287 118.225 287 100C287 81.7746 272.225 67 254 67C235.775 67 221 81.7746 221 100C221 118.225 235.775 133 254 133Z" fill="#012F34"/>
<rect x="354" y="43" width="43" height="43" transform="rotate(180 354 43)" fill="#79C8C7"/>
<path fill-rule="evenodd" clip-rule="evenodd" d="M229.514 200C284.742 200 329.514 155.228 329.514 100C329.514 44.7715 284.742 0 229.514 0C174.285 0 129.514 44.7715 129.514 100C129.514 155.228 174.285 200 229.514 200ZM229.514 133C247.739 133 262.514 118.225 262.514 100C262.514 81.7746 247.739 67 229.514 67C211.288 67 196.514 81.7746 196.514 100C196.514 118.225 211.288 133 229.514 133Z" fill="#F67E7E"/>
<path fill-rule="evenodd" clip-rule="evenodd" d="M96 0H-4V4H96V0ZM96 8H-4V12H96V8ZM-4 16H96V20H-4V16ZM96 24H-4V28H96V24ZM-4 32H96V36H-4V32ZM96 40H-4V44H96V40Z" fill="#79C8C7"/>
</svg>
